<svg width="15" height="14" viewBox="0 0 15 14" fill="none" xmlns="http://www.w3.org/2000/svg">
<path d="M6.98623 0.206645C7.14147 -0.0687651 7.53807 -0.0687657 7.6933 0.206645L9.82477 3.98825C9.88269 4.091 9.98243 4.16347 10.098 4.18679L14.3532 5.04536C14.6631 5.10789 14.7857 5.48508 14.5717 5.71782L11.6339 8.91355C11.554 9.00038 11.5159 9.11764 11.5295 9.2348L12.0279 13.547C12.0642 13.8611 11.7433 14.0942 11.4558 13.9626L7.50866 12.1561C7.40141 12.107 7.27812 12.107 7.17088 12.1561L3.22371 13.9626C2.93624 14.0942 2.61538 13.8611 2.65168 13.547L3.15006 9.2348C3.1636 9.11764 3.1255 9.00038 3.04568 8.91356L0.107816 5.71782C-0.106146 5.48508 0.0164109 5.10789 0.326311 5.04536L4.58149 4.18679C4.69711 4.16347 4.79685 4.091 4.85476 3.98825L6.98623 0.206645Z" fill="#D0D0D0"/>
</svg>
